<svg xmlns="http://www.w3.org/2000/svg" xmlns:xlink="http://www.w3.org/1999/xlink" width="1080" zoomAndPan="magnify" viewBox="0 0 810 1012.49997" height="1350" preserveAspectRatio="xMidYMid meet" version="1.0"><defs><g/><clipPath id="95e12a2354"><path d="M 0.199219 0 L 809.800781 0 L 809.800781 1012 L 0.199219 1012 Z M 0.199219 0 " clip-rule="nonzero"/></clipPath></defs><g clip-path="url(#95e12a2354)"><path fill="#ffffff" d="M 0.199219 0 L 809.800781 0 L 809.800781 1012 L 0.199219 1012 Z M 0.199219 0 " fill-opacity="1" fill-rule="nonzero"/><path fill="#ffffff" d="M 0.199219 0 L 809.800781 0 L 809.800781 1012 L 0.199219 1012 Z M 0.199219 0 " fill-opacity="1" fill-rule="nonzero"/></g><g fill="#000000" fill-opacity="1"><g transform="translate(56.281984, 599.703807)"><g><path d="M 82.46875 -135.1875 C 73.039062 -125.75 68.328125 -114.359375 68.328125 -101.015625 C 68.328125 -87.679688 73.039062 -76.296875 82.46875 -66.859375 C 91.90625 -57.421875 103.296875 -52.703125 116.640625 -52.703125 C 129.984375 -52.703125 141.367188 -57.421875 150.796875 -66.859375 C 160.234375 -76.296875 164.953125 -87.679688 164.953125 -101.015625 C 164.953125 -114.359375 160.234375 -125.75 150.796875 -135.1875 C 141.367188 -144.625 129.984375 -149.34375 116.640625 -149.34375 C 103.296875 -149.34375 91.90625 -144.625 82.46875 -135.1875 Z M 64.046875 -78.875 C 61.046875 -85.914062 59.546875 -93.296875 59.546875 -101.015625 C 59.546875 -108.742188 61.046875 -116.125 64.046875 -123.15625 C 67.054688 -130.195312 71.125 -136.28125 76.25 -141.40625 C 81.375 -146.53125 87.453125 -150.597656 94.484375 -153.609375 C 101.523438 -156.617188 108.910156 -158.125 116.640625 -158.125 C 124.367188 -158.125 131.75 -156.617188 138.78125 -153.609375 C 145.820312 -150.597656 151.90625 -146.53125 157.03125 -141.40625 C 162.15625 -136.28125 166.21875 -130.195312 169.21875 -123.15625 C 172.226562 -116.125 173.734375 -108.742188 173.734375 -101.015625 C 173.734375 -93.296875 172.226562 -85.914062 169.21875 -78.875 C 166.21875 -71.84375 162.15625 -65.765625 157.03125 -60.640625 C 151.90625 -55.515625 145.820312 -51.445312 138.78125 -48.4375 C 131.75 -45.425781 124.367188 -43.921875 116.640625 -43.921875 C 108.910156 -43.921875 101.523438 -45.425781 94.484375 -48.4375 C 87.453125 -51.445312 81.375 -55.515625 76.25 -60.640625 C 71.125 -65.765625 67.054688 -71.84375 64.046875 -78.875 Z M 59.59375 -134.078125 C 53.695312 -123.992188 50.75 -112.972656 50.75 -101.015625 C 50.75 -89.066406 53.695312 -78.046875 59.59375 -67.953125 C 65.5 -57.867188 73.492188 -49.878906 83.578125 -43.984375 C 93.660156 -38.085938 104.679688 -35.140625 116.640625 -35.140625 C 128.597656 -35.140625 139.617188 -38.085938 149.703125 -43.984375 C 159.785156 -49.878906 167.773438 -57.867188 173.671875 -67.953125 C 179.578125 -78.046875 182.53125 -89.066406 182.53125 -101.015625 C 182.53125 -112.972656 179.578125 -123.992188 173.671875 -134.078125 C 167.773438 -144.171875 159.785156 -152.164062 149.703125 -158.0625 C 139.617188 -163.957031 128.597656 -166.90625 116.640625 -166.90625 C 104.679688 -166.90625 93.660156 -163.957031 83.578125 -158.0625 C 73.492188 -152.164062 65.5 -144.171875 59.59375 -134.078125 Z M 51.96875 -63.5625 C 45.300781 -75.03125 41.96875 -87.515625 41.96875 -101.015625 C 41.96875 -114.523438 45.300781 -127.015625 51.96875 -138.484375 C 58.644531 -149.953125 67.71875 -159.019531 79.1875 -165.6875 C 90.65625 -172.351562 103.140625 -175.6875 116.640625 -175.6875 C 130.140625 -175.6875 142.625 -172.351562 154.09375 -165.6875 C 165.5625 -159.019531 174.628906 -149.953125 181.296875 -138.484375 C 187.972656 -127.015625 191.3125 -114.523438 191.3125 -101.015625 C 191.3125 -87.515625 187.972656 -75.03125 181.296875 -63.5625 C 174.628906 -52.09375 165.5625 -43.023438 154.09375 -36.359375 C 142.625 -29.691406 130.140625 -26.359375 116.640625 -26.359375 C 103.140625 -26.359375 90.65625 -29.691406 79.1875 -36.359375 C 67.71875 -43.023438 58.644531 -52.09375 51.96875 -63.5625 Z M 39.765625 -133.46875 C 35.378906 -123.144531 33.1875 -112.328125 33.1875 -101.015625 C 33.1875 -89.710938 35.378906 -78.894531 39.765625 -68.5625 C 44.160156 -58.238281 50.078125 -49.351562 57.515625 -41.90625 C 64.960938 -34.46875 73.851562 -28.550781 84.1875 -24.15625 C 94.519531 -19.757812 105.335938 -17.5625 116.640625 -17.5625 C 127.941406 -17.5625 138.757812 -19.757812 149.09375 -24.15625 C 159.425781 -28.550781 168.3125 -34.46875 175.75 -41.90625 C 183.195312 -49.351562 189.113281 -58.238281 193.5 -68.5625 C 197.894531 -78.894531 200.09375 -89.710938 200.09375 -101.015625 C 200.09375 -112.328125 197.894531 -123.144531 193.5 -133.46875 C 189.113281 -143.800781 183.195312 -152.6875 175.75 -160.125 C 168.3125 -167.570312 159.425781 -173.492188 149.09375 -177.890625 C 138.757812 -182.285156 127.941406 -184.484375 116.640625 -184.484375 C 105.335938 -184.484375 94.519531 -182.285156 84.1875 -177.890625 C 73.851562 -173.492188 64.960938 -167.570312 57.515625 -160.125 C 50.078125 -152.6875 44.160156 -143.800781 39.765625 -133.46875 Z M 36.78125 -54.78125 C 28.53125 -68.9375 24.40625 -84.347656 24.40625 -101.015625 C 24.40625 -117.691406 28.53125 -133.109375 36.78125 -147.265625 C 45.039062 -161.421875 56.242188 -172.625 70.390625 -180.875 C 84.546875 -189.132812 99.960938 -193.265625 116.640625 -193.265625 C 133.316406 -193.265625 148.726562 -189.132812 162.875 -180.875 C 177.03125 -172.625 188.234375 -161.421875 196.484375 -147.265625 C 204.742188 -133.109375 208.875 -117.691406 208.875 -101.015625 C 208.875 -84.347656 204.742188 -68.9375 196.484375 -54.78125 C 188.234375 -40.625 177.03125 -29.414062 162.875 -21.15625 C 148.726562 -12.90625 133.316406 -8.78125 116.640625 -8.78125 C 99.960938 -8.78125 84.546875 -12.90625 70.390625 -21.15625 C 56.242188 -29.414062 45.039062 -40.625 36.78125 -54.78125 Z M 23.609375 -140.25 C 18.285156 -127.757812 15.625 -114.679688 15.625 -101.015625 C 15.625 -87.359375 18.285156 -74.285156 23.609375 -61.796875 C 28.929688 -49.304688 36.109375 -38.546875 45.140625 -29.515625 C 54.171875 -20.492188 64.925781 -13.316406 77.40625 -7.984375 C 89.894531 -2.660156 102.972656 0 116.640625 0 C 130.304688 0 143.378906 -2.660156 155.859375 -7.984375 C 168.347656 -13.316406 179.109375 -20.492188 188.140625 -29.515625 C 197.171875 -38.546875 204.347656 -49.304688 209.671875 -61.796875 C 215.003906 -74.285156 217.671875 -87.359375 217.671875 -101.015625 C 217.671875 -114.679688 215.003906 -127.757812 209.671875 -140.25 C 204.347656 -152.738281 197.171875 -163.492188 188.140625 -172.515625 C 179.109375 -181.546875 168.347656 -188.722656 155.859375 -194.046875 C 143.378906 -199.378906 130.304688 -202.046875 116.640625 -202.046875 C 102.972656 -202.046875 89.894531 -199.378906 77.40625 -194.046875 C 64.925781 -188.722656 54.171875 -181.546875 45.140625 -172.515625 C 36.109375 -163.492188 28.929688 -152.738281 23.609375 -140.25 Z M 15.546875 -58.375 C 9.734375 -71.925781 6.828125 -86.140625 6.828125 -101.015625 C 6.828125 -115.898438 9.734375 -130.113281 15.546875 -143.65625 C 21.367188 -157.207031 29.179688 -168.882812 38.984375 -178.6875 C 48.785156 -188.488281 60.457031 -196.296875 74 -202.109375 C 87.539062 -207.921875 101.753906 -210.828125 116.640625 -210.828125 C 131.523438 -210.828125 145.738281 -207.921875 159.28125 -202.109375 C 172.820312 -196.296875 184.492188 -188.488281 194.296875 -178.6875 C 204.097656 -168.882812 211.90625 -157.207031 217.71875 -143.65625 C 223.539062 -130.113281 226.453125 -115.898438 226.453125 -101.015625 C 226.453125 -86.140625 223.539062 -71.925781 217.71875 -58.375 C 211.90625 -44.832031 204.097656 -33.160156 194.296875 -23.359375 C 184.492188 -13.554688 172.820312 -5.75 159.28125 0.0625 C 145.738281 5.875 131.523438 8.78125 116.640625 8.78125 C 101.753906 8.78125 87.539062 5.875 74 0.0625 C 60.457031 -5.75 48.785156 -13.554688 38.984375 -23.359375 C 29.179688 -33.160156 21.367188 -44.832031 15.546875 -58.375 Z M 15.546875 -58.375 "/></g></g><g transform="translate(289.562864, 599.703807)"><g><path d="M 156.78125 -73.6875 L 165.5625 -90.28125 L 165.5625 0 L 156.78125 0 Z M 174.34375 -107.375 L 183.140625 -123.96875 L 183.140625 0 L 174.34375 0 Z M 191.921875 -140.5625 L 200.703125 -157.265625 L 200.703125 0 L 191.921875 0 Z M 132.984375 -77.84375 L 127.984375 -87 L 188.5 -202.046875 L 198.390625 -202.046875 Z M 122.859375 -97 L 117.734375 -106.265625 L 168.5 -202.046875 L 178.5 -202.046875 Z M 64.0625 -89.3125 L 72.84375 -72.71875 L 72.84375 0 L 64.0625 0 Z M 46.484375 -122.734375 L 55.265625 -106.140625 L 55.265625 0 L 46.484375 0 Z M 28.921875 -156.171875 L 37.703125 -139.453125 L 37.703125 0 L 28.921875 0 Z M 99.921875 -52.703125 L 90.046875 -52.703125 L 20.125 -185.328125 L 20.125 0 L 11.34375 0 L 11.34375 -202.046875 L 21.234375 -202.046875 Z M 119.8125 -52.703125 L 109.8125 -52.703125 L 31.234375 -202.046875 L 41.234375 -202.046875 Z M 209.484375 -185.328125 L 139.578125 -52.703125 L 129.578125 -52.703125 L 51.125 -202.046875 L 61 -202.046875 L 134.703125 -61.984375 L 208.265625 -202.046875 L 218.28125 -202.046875 L 218.28125 0 L 209.484375 0 Z M 209.484375 -185.328125 "/></g></g><g transform="translate(519.671514, 599.703807)"><g><path d="M 98.578125 -59.296875 L 102.125 -68.078125 L 132.140625 -68.078125 L 135.671875 -59.296875 Z M 91.75 -41.734375 L 95.171875 -50.515625 L 138.96875 -50.515625 L 142.75 -41.734375 Z M 84.921875 -24.15625 L 88.328125 -32.9375 L 145.921875 -32.9375 L 149.578125 -24.15625 Z M 13.546875 0 L 4.03125 0 L 83.9375 -202.046875 L 93.453125 -202.046875 L 173.25 0 L 163.859375 0 L 88.703125 -190.21875 Z M 89.796875 -169.34375 L 94.796875 -158.125 L 32.328125 0 L 22.9375 0 Z M 99.5625 -146.171875 L 104.203125 -134.09375 L 51.359375 0 L 41.84375 0 Z M 108.828125 -122.015625 L 113.46875 -109.6875 L 70.15625 0 L 60.765625 0 Z M 229.984375 0 L 220.46875 0 L 140.671875 -202.046875 L 150.078125 -202.046875 Z M 131.15625 -202.046875 L 211.078125 0 L 201.6875 0 L 121.765625 -202.046875 Z M 112.25 -202.046875 L 192.171875 0 L 182.640625 0 L 102.859375 -202.046875 Z M 112.25 -202.046875 "/></g></g></g></svg>