<?xml version="1.0" standalone="no"?>
<!DOCTYPE svg PUBLIC "-//W3C//DTD SVG 20010904//EN"
 "http://www.w3.org/TR/2001/REC-SVG-20010904/DTD/svg10.dtd">
<svg version="1.0" xmlns="http://www.w3.org/2000/svg"
 width="500.000000pt" height="500.000000pt" viewBox="0 0 500.000000 500.000000"
 preserveAspectRatio="xMidYMid meet">

<g transform="translate(0.000000,500.000000) scale(0.100000,-0.100000)"
fill="#000000" stroke="none">
<path d="M1305 3020 c-412 -89 -566 -581 -272 -875 206 -206 527 -207 733 -1
203 203 204 522 4 727 -63 63 -120 100 -206 129 -66 23 -198 34 -259 20z m249
-60 c168 -58 287 -199 318 -378 40 -237 -118 -474 -357 -537 -323 -84 -638
202 -587 532 47 299 344 481 626 383z"/>
<path d="M1331 2940 c-29 -5 -86 -24 -126 -44 -270 -133 -324 -491 -106 -700
174 -165 428 -165 602 0 173 166 181 430 19 607 -96 106 -245 158 -389 137z
m241 -78 c272 -134 298 -514 47 -681 -83 -55 -187 -78 -278 -62 -133 24 -233
96 -290 210 -110 218 0 481 232 557 26 9 76 13 133 11 79 -2 100 -7 156 -35z"/>
<path d="M1293 2846 c-96 -31 -187 -119 -223 -214 -31 -81 -25 -205 14 -280
34 -67 90 -123 158 -159 48 -25 62 -28 158 -28 96 0 110 3 158 28 68 36 124
92 158 159 39 75 45 199 14 280 -28 76 -104 159 -177 194 -67 33 -191 43 -260
20z m238 -54 c182 -88 235 -321 110 -480 -21 -26 -62 -60 -92 -77 -49 -27 -62
-30 -149 -30 -80 0 -102 4 -139 23 -139 74 -205 239 -154 388 23 68 119 164
188 187 67 23 177 18 236 -11z"/>
<path d="M1317 2766 c-164 -61 -232 -237 -151 -387 49 -89 133 -139 234 -139
109 0 199 59 245 161 23 53 27 71 23 123 -8 101 -63 183 -151 228 -52 26 -149
33 -200 14z m203 -64 c94 -58 133 -179 90 -280 -61 -143 -237 -187 -355 -90
-84 70 -107 198 -52 291 66 111 206 146 317 79z"/>
<path d="M2010 2511 c0 -473 0 -481 20 -481 19 0 20 8 22 433 l3 432 161 -305
c128 -245 165 -306 182 -308 12 -2 22 0 22 5 -1 4 -83 163 -183 353 -148 279
-187 346 -205 348 l-22 3 0 -480z"/>
<path d="M2153 2888 c30 -57 114 -217 187 -355 119 -227 135 -253 157 -253
l25 0 -40 73 c-21 39 -106 199 -187 355 -132 250 -151 282 -173 282 -23 0 -22
-3 31 -102z"/>
<path d="M2200 2984 c0 -3 82 -163 183 -355 165 -317 184 -349 207 -349 23 0
40 29 180 296 85 163 160 303 167 312 10 14 12 -74 13 -420 0 -432 0 -438 20
-438 20 0 20 5 18 478 l-3 477 -23 0 c-21 0 -45 -41 -195 -327 -95 -180 -174
-328 -177 -327 -3 0 -82 147 -176 327 -136 259 -176 328 -193 330 -11 2 -21 0
-21 -4z"/>
<path d="M2632 2763 c-105 -198 -119 -230 -109 -250 5 -13 11 -22 12 -21 10
12 255 481 255 488 0 6 -9 10 -19 10 -15 0 -47 -52 -139 -227z"/>
<path d="M2843 2978 c-6 -7 -72 -131 -147 -275 -122 -234 -136 -264 -125 -284
11 -22 12 -22 32 17 11 21 80 153 153 293 74 139 134 255 134 257 0 10 -39 3
-47 -8z"/>
<path d="M3284 2593 c-86 -219 -171 -435 -190 -480 l-32 -83 22 0 c21 0 39 41
195 438 95 240 176 441 180 445 4 4 52 -104 106 -240 259 -656 252 -638 274
-641 12 -2 21 -1 21 1 0 8 -360 919 -371 939 -5 10 -18 18 -29 18 -15 0 -46
-71 -176 -397z"/>
<path d="M3530 2988 c0 -2 85 -217 188 -478 167 -421 190 -475 211 -478 18 -3
22 0 17 15 -3 10 -88 225 -189 478 -159 401 -185 460 -205 463 -12 2 -22 2
-22 0z"/>
<path d="M3620 2988 c0 -2 85 -217 188 -478 163 -411 191 -475 210 -478 12 -2
22 -2 22 1 0 2 -84 217 -188 478 -164 414 -190 474 -210 477 -12 2 -22 2 -22
0z"/>
<path d="M3710 2988 c0 -2 84 -217 188 -478 164 -416 190 -475 210 -478 12 -2
22 -2 22 0 0 2 -84 217 -188 478 -164 415 -190 475 -210 478 -12 2 -22 2 -22
0z"/>
<path d="M3340 2508 c-68 -172 -138 -350 -156 -395 -33 -83 -33 -83 -10 -83
19 0 37 38 169 373 138 349 158 417 127 417 -4 0 -62 -141 -130 -312z"/>
<path d="M2090 2398 c0 -361 0 -368 20 -368 20 0 20 7 20 333 -1 308 -2 335
-20 367 l-19 35 -1 -367z"/>
<path d="M2877 2725 c-15 -31 -17 -77 -17 -365 0 -323 0 -330 20 -330 20 0 20
7 20 365 0 201 -1 365 -3 365 -2 0 -11 -16 -20 -35z"/>
<path d="M3390 2408 c-68 -172 -129 -328 -137 -345 -13 -32 -12 -33 10 -33 22
0 29 13 70 118 25 64 81 207 124 317 71 179 78 204 68 228 -11 26 -20 6 -135
-285z"/>
<path d="M2797 2575 c-15 -31 -17 -72 -17 -290 0 -248 1 -255 20 -255 20 0 20
7 20 290 0 160 -1 290 -3 290 -2 0 -11 -16 -20 -35z"/>
<path d="M2170 2315 c0 -278 0 -285 20 -285 19 0 20 7 20 255 0 210 -3 261
-15 285 -9 17 -18 30 -20 30 -3 0 -5 -128 -5 -285z"/>
<path d="M3456 2347 c-55 -138 -106 -267 -113 -284 -13 -32 -12 -33 9 -33 21
0 34 27 125 260 86 217 101 264 93 285 -5 14 -11 25 -12 25 -2 0 -48 -114
-102 -253z"/>
<path d="M2717 2421 c-14 -25 -17 -57 -17 -210 0 -174 1 -181 20 -181 19 0 20
7 20 210 0 116 -1 210 -3 210 -1 0 -10 -13 -20 -29z"/>
<path d="M2260 2238 c0 -201 1 -208 20 -208 19 0 20 7 20 173 -1 150 -3 176
-20 207 l-19 35 -1 -207z"/>
<path d="M3517 2330 c-5 -19 -1 -20 80 -20 75 0 84 2 81 18 -3 14 -16 17 -79
20 -70 3 -77 1 -82 -18z"/>
<path d="M3486 2254 c-3 -9 -6 -18 -6 -20 0 -2 54 -4 120 -4 118 0 120 1 110
20 -10 18 -21 20 -114 20 -86 0 -105 -3 -110 -16z"/>
<path d="M3456 2174 c-3 -9 -6 -20 -6 -25 0 -5 66 -9 150 -9 83 0 150 3 150 6
0 3 -5 14 -10 25 -10 17 -22 19 -144 19 -113 0 -135 -2 -140 -16z"/>
</g>
</svg>
