<?xml version="1.0" standalone="no"?>
<!DOCTYPE svg PUBLIC "-//W3C//DTD SVG 20010904//EN"
 "http://www.w3.org/TR/2001/REC-SVG-20010904/DTD/svg10.dtd">
<svg version="1.0" xmlns="http://www.w3.org/2000/svg"
 width="500.000000pt" height="500.000000pt" viewBox="0 0 500.000000 500.000000"
 preserveAspectRatio="xMidYMid meet">

<g transform="translate(0.000000,500.000000) scale(0.100000,-0.100000)"
fill="#000000" stroke="none">
<path d="M2450 4100 c-28 -28 -26 -71 5 -100 21 -20 25 -33 25 -79 l0 -56 161
-200 c89 -110 191 -234 227 -275 36 -41 71 -82 78 -90 9 -12 7 -42 -12 -144
-13 -71 -25 -130 -26 -132 -2 -1 -50 34 -108 78 -97 74 -105 83 -111 120 -9
65 -62 88 -110 50 -50 -41 -13 -127 53 -120 22 2 52 -16 149 -91 101 -78 120
-96 116 -114 -3 -12 -17 -89 -32 -172 -34 -197 -41 -222 -78 -272 -35 -49
-161 -157 -215 -185 -43 -21 -100 -23 -145 -4 -35 14 -168 121 -205 164 -45
53 -61 102 -96 293 -33 182 -34 195 -18 211 9 9 114 93 233 186 185 145 220
169 243 165 33 -7 76 30 76 64 0 30 -42 73 -70 73 -32 0 -72 -45 -68 -77 3
-22 -10 -36 -91 -101 l-94 -75 6 53 c5 42 12 59 33 75 52 42 24 125 -42 125
-53 0 -83 -71 -49 -116 16 -21 18 -57 9 -128 -7 -49 -10 -51 -200 -198 -8 -6
-16 19 -28 82 -34 188 -38 166 46 261 40 46 104 121 142 167 43 52 75 82 87
82 27 0 69 44 69 73 0 31 -39 67 -72 67 -39 0 -71 -44 -64 -90 5 -30 1 -41
-34 -80 l-39 -45 -1 188 c0 182 1 189 22 206 30 25 29 78 -1 103 -30 23 -52
23 -85 -3 -32 -25 -35 -70 -6 -99 16 -16 20 -33 20 -80 0 -33 -3 -60 -6 -60
-3 0 -26 14 -50 31 -29 19 -43 36 -40 45 3 8 1 25 -4 38 -27 73 -130 49 -130
-29 0 -42 35 -70 77 -62 20 4 43 -6 89 -37 l64 -41 -1 -135 0 -135 -63 -69
-64 -70 -7 52 c-5 41 -13 57 -41 81 -32 28 -34 34 -34 92 0 50 4 64 22 78 30
25 29 78 -1 103 -28 22 -59 23 -89 2 -29 -20 -30 -76 -2 -104 18 -18 30 -90
14 -90 -3 0 -32 23 -64 52 -51 45 -58 55 -53 79 6 33 -33 79 -67 79 -28 0 -70
-43 -70 -73 0 -31 39 -67 74 -67 20 0 58 -26 145 -100 l118 -101 22 -130 c13
-72 21 -132 19 -135 -3 -2 -76 61 -164 141 l-159 145 -61 0 c-48 0 -65 4 -79
20 -23 25 -76 26 -98 2 -22 -25 -21 -75 1 -95 25 -23 75 -21 97 3 14 15 31 20
74 20 55 0 57 -1 131 -70 l75 -69 -57 -1 c-45 0 -62 4 -78 20 -28 28 -84 27
-104 -2 -34 -48 -4 -108 52 -108 16 0 37 9 47 20 16 17 31 20 109 20 l91 -1
72 -67 72 -67 19 -107 19 -108 -27 0 c-22 0 -36 11 -64 50 l-36 50 -68 0 -69
0 -62 65 -61 65 -118 0 c-105 0 -119 2 -135 20 -11 13 -29 20 -52 20 -66 0
-88 -82 -33 -123 27 -20 29 -20 63 -4 19 9 35 21 35 27 0 6 43 10 113 10 l113
0 39 -41 40 -41 -63 5 -63 5 -62 -54 c-69 -61 -94 -66 -132 -28 -20 20 -32 24
-53 20 -59 -14 -80 -76 -39 -114 31 -29 68 -28 97 3 16 17 34 25 56 25 25 0
45 12 87 50 l55 50 89 0 c50 0 117 -3 149 -6 54 -6 62 -10 83 -41 20 -31 21
-39 11 -64 -24 -57 16 -128 105 -184 35 -23 55 -43 59 -61 8 -32 37 -76 79
-121 29 -31 29 -32 17 -85 -30 -127 -88 -211 -173 -255 -28 -14 -98 -37 -155
-52 -58 -14 -107 -32 -109 -38 -8 -22 164 -133 280 -182 226 -93 505 -111 733
-46 158 46 423 192 411 228 -2 6 -51 24 -109 38 -57 15 -127 38 -155 52 -85
44 -143 128 -173 255 -12 53 -12 54 17 85 42 45 71 89 79 121 4 18 24 38 59
61 87 55 132 134 106 184 -10 17 -7 27 14 59 23 35 31 40 78 46 29 3 97 6 152
6 l101 0 49 -50 c40 -41 56 -50 83 -50 24 0 42 -8 58 -25 46 -50 118 -20 116
47 -1 35 -31 68 -62 68 -10 0 -32 -11 -48 -25 -43 -36 -66 -32 -128 27 l-56
52 -65 -2 -65 -3 33 40 34 41 112 0 c107 0 113 -1 138 -26 60 -60 147 22 95
89 -28 35 -72 36 -104 2 -22 -24 -28 -25 -143 -25 l-120 0 -52 -60 -52 -60
-67 0 c-37 0 -72 -4 -78 -8 -6 -4 -24 -28 -42 -53 -27 -40 -35 -45 -59 -42
l-29 5 18 101 17 102 77 73 77 72 89 0 c75 0 91 -3 108 -20 29 -29 74 -26 100
7 24 30 20 69 -7 91 -26 19 -77 15 -98 -8 -14 -16 -31 -20 -76 -20 l-59 0 76
70 c74 69 76 70 130 70 41 0 59 -5 74 -20 28 -28 84 -27 104 2 34 48 4 108
-54 108 -17 0 -39 -9 -50 -20 -15 -15 -33 -20 -79 -20 l-59 0 -163 -149 c-90
-82 -166 -148 -168 -146 -2 2 7 63 20 135 l23 132 120 104 c99 85 126 104 153
104 34 0 73 37 73 70 0 32 -34 63 -68 63 -45 0 -74 -29 -70 -70 2 -29 -5 -38
-62 -88 l-65 -56 -3 36 c-3 29 2 43 22 64 32 34 33 71 3 99 -30 29 -62 28 -92
-3 -32 -31 -32 -59 0 -91 21 -21 25 -34 25 -82 0 -54 -3 -60 -39 -96 -28 -27
-41 -50 -46 -79 l-7 -42 -64 70 -64 70 0 126 0 126 68 45 c53 36 74 44 99 41
66 -10 100 75 47 116 -35 28 -59 26 -91 -5 -17 -17 -24 -33 -20 -49 3 -21 -4
-30 -43 -55 -26 -16 -50 -30 -53 -30 -4 0 -7 26 -7 58 0 49 4 62 25 82 33 31
33 72 -1 99 -35 27 -59 26 -89 -4 -32 -31 -31 -56 0 -93 25 -30 25 -32 25
-217 l0 -187 -140 174 c-135 167 -140 175 -140 220 0 37 5 52 25 72 30 31 32
55 4 90 -25 32 -70 35 -99 6z m68 -48 c3 -16 -2 -22 -17 -22 -26 0 -36 17 -20
36 16 19 33 13 37 -14z m-318 -61 c0 -27 -19 -36 -37 -18 -18 18 -9 37 18 37
12 0 19 -7 19 -19z m643 5 c7 -17 -18 -40 -33 -31 -5 3 -10 15 -10 26 0 23 35
27 43 5z m-835 -108 c-3 -25 -17 -32 -37 -19 -19 12 -6 41 19 41 16 0 21 -5
18 -22z m1028 11 c3 -6 0 -18 -9 -26 -18 -18 -37 -9 -37 18 0 21 34 27 46 8z
m-1096 -209 c0 -22 -24 -32 -39 -17 -15 15 -14 34 2 40 20 7 37 -4 37 -23z
m418 2 c3 -17 -2 -22 -17 -22 -14 0 -21 6 -21 18 0 38 33 41 38 4z m740 -18
c-19 -19 -38 -11 -38 16 0 24 21 31 40 14 12 -12 12 -16 -2 -30z m-1378 17 c0
-27 -19 -36 -37 -18 -18 18 -9 37 18 37 12 0 19 -7 19 -19z m1600 0 c0 -27
-19 -36 -37 -18 -18 18 -9 37 18 37 12 0 19 -7 19 -19z m-1802 -274 c4 -20
-25 -34 -40 -19 -15 15 -1 44 19 40 10 -2 19 -11 21 -21z m2005 11 c7 -21 -4
-38 -24 -38 -14 0 -19 7 -19 25 0 18 5 25 19 25 11 0 21 -6 24 -12z m-1163
-27 c0 -22 -21 -33 -40 -21 -18 11 -4 40 20 40 13 0 20 -7 20 -19z m250 0 c0
-27 -19 -36 -37 -18 -18 18 -9 37 18 37 12 0 19 -7 19 -19z m-952 -173 c-4
-27 -33 -36 -42 -13 -8 22 1 35 25 35 15 0 20 -6 17 -22z m1720 0 c-4 -27 -33
-36 -42 -13 -8 22 1 35 25 35 15 0 20 -6 17 -22z m-728 -7 c0 -22 -21 -33 -40
-21 -18 11 -4 40 20 40 13 0 20 -7 20 -19z m-1252 -164 c4 -20 -25 -34 -40
-19 -15 15 -1 44 19 40 10 -2 19 -11 21 -21z m2240 -5 c3 -16 -2 -22 -16 -22
-22 0 -32 17 -24 38 7 20 37 9 40 -16z m-2238 -221 c0 -27 -19 -36 -37 -18
-18 18 -9 37 18 37 12 0 19 -7 19 -19z m2240 0 c0 -24 -25 -34 -40 -16 -15 18
-5 35 21 35 12 0 19 -7 19 -19z m-1551 -97 c7 -42 10 -78 7 -81 -7 -8 -58 34
-78 65 -33 50 -16 91 38 92 17 0 22 -10 33 -76z m882 66 c33 -18 25 -64 -21
-110 -38 -38 -60 -50 -60 -32 0 13 20 125 25 140 5 15 30 16 56 2z m-591 -508
c38 -23 56 -27 115 -27 74 0 112 16 192 81 l31 25 17 -57 c23 -78 60 -152 99
-192 l31 -34 -40 -34 c-49 -43 -161 -100 -215 -109 -36 -6 -43 -4 -61 19 -28
35 -72 35 -104 0 -24 -25 -26 -26 -72 -14 -58 14 -165 70 -213 110 l-34 30 31
32 c37 40 75 114 98 192 l17 57 31 -25 c18 -14 52 -38 77 -54z m-228 -278 c78
-58 168 -101 227 -110 25 -4 59 -17 74 -30 36 -30 58 -30 94 -1 15 13 47 27
71 31 61 9 156 55 228 109 l61 46 94 -31 c52 -17 103 -34 113 -38 16 -5 11
-11 -30 -37 -124 -80 -282 -140 -427 -163 -109 -18 -319 -8 -422 20 -105 28
-202 69 -300 127 -65 38 -76 47 -60 53 112 38 201 68 207 69 5 1 36 -20 70
-45z m366 -88 c6 -29 -15 -43 -35 -24 -14 14 -14 20 -3 33 16 19 34 15 38 -9z"/>
<path d="M2172 2893 c3 -16 17 -18 103 -21 140 -4 145 -9 145 -154 0 -138 5
-148 73 -148 59 0 83 11 74 34 -5 11 -19 16 -51 16 l-44 0 -4 111 -3 111 -38
34 -37 34 -111 0 c-100 0 -110 -2 -107 -17z"/>
<path d="M2576 2889 c-34 -27 -47 -51 -36 -69 7 -12 15 -9 42 17 32 31 36 32
133 35 86 3 100 5 103 21 3 15 -7 17 -106 17 -96 0 -113 -3 -136 -21z"/>
<path d="M2770 2768 c-28 -15 -46 -18 -85 -13 -81 11 -88 11 -92 -3 -7 -17 58
-42 109 -42 56 1 131 34 126 57 -4 23 -18 23 -58 1z"/>
<path d="M2160 2765 c0 -22 76 -55 128 -55 46 0 112 23 112 39 0 19 -18 21
-68 10 -42 -10 -58 -9 -100 5 -63 20 -72 20 -72 1z"/>
<path d="M1970 2590 c-29 -29 -26 -74 6 -99 33 -26 55 -26 82 -3 35 29 38 67
8 96 -30 31 -69 33 -96 6z m68 -48 c3 -16 -2 -22 -17 -22 -26 0 -36 17 -20 36
16 19 33 13 37 -14z"/>
<path d="M2397 2512 c-15 -9 -27 -24 -27 -34 0 -23 68 -77 107 -84 38 -7 102
12 110 33 9 24 -17 32 -53 17 -29 -12 -39 -12 -68 0 -18 8 -36 19 -40 24 -9
16 30 25 53 12 15 -8 26 -7 41 2 16 10 25 9 50 -6 31 -18 60 -16 60 4 0 6 -14
19 -31 29 -41 25 -162 27 -202 3z"/>
<path d="M1076 1519 c-22 -17 -26 -29 -26 -68 0 -68 25 -89 110 -93 62 -3 65
-4 65 -28 0 -24 -2 -25 -82 -28 l-83 -3 0 -29 0 -30 98 0 c90 0 100 2 120 23
17 18 22 36 22 74 0 68 -18 83 -97 83 -68 0 -96 17 -73 45 9 11 33 15 86 15
l74 0 0 30 0 30 -94 0 c-79 0 -97 -3 -120 -21z"/>
<path d="M1407 1512 c-26 -27 -27 -33 -27 -128 0 -92 2 -102 23 -122 20 -19
35 -22 114 -22 87 0 93 1 112 26 18 23 21 41 21 123 0 93 -1 98 -28 124 -26
25 -35 27 -108 27 -75 0 -82 -2 -107 -28z m158 -122 l0 -85 -52 -3 -53 -3 0
84 c0 46 3 87 7 91 4 4 28 6 53 4 l45 -3 0 -85z"/>
<path d="M1730 1412 c0 -121 1 -130 23 -150 20 -19 35 -22 108 -22 76 0 88 2
107 23 20 21 22 34 22 150 l0 127 -35 0 -34 0 -3 -117 -3 -118 -52 -3 -52 -3
-3 118 -3 118 -37 3 -38 3 0 -129z"/>
<path d="M2090 1390 l0 -150 105 0 105 0 0 30 0 30 -70 0 -70 0 0 120 0 120
-35 0 -35 0 0 -150z"/>
<path d="M2526 1519 c-22 -17 -26 -29 -26 -68 0 -68 25 -89 110 -93 62 -3 65
-4 65 -28 0 -24 -2 -25 -82 -28 l-83 -3 0 -29 0 -30 98 0 c90 0 100 2 120 23
17 18 22 36 22 74 0 68 -18 83 -97 83 -68 0 -96 17 -73 45 9 11 33 15 86 15
l74 0 0 30 0 30 -94 0 c-79 0 -97 -3 -120 -21z"/>
<path d="M2820 1510 c0 -28 2 -30 40 -30 l40 0 0 -120 0 -120 35 0 34 0 3 118
3 117 43 3 c40 3 43 5 40 30 l-3 27 -117 3 -118 3 0 -31z"/>
<path d="M3130 1390 l0 -150 110 0 110 0 0 30 0 30 -75 0 -75 0 0 30 0 30 70
0 70 0 0 30 0 30 -71 0 -70 0 3 28 c3 26 5 27 76 30 l72 3 0 29 0 30 -110 0
-110 0 0 -150z"/>
<path d="M3440 1390 l0 -150 40 0 40 0 0 45 0 45 58 0 c80 0 102 23 102 106 0
50 -4 64 -23 82 -21 19 -34 22 -120 22 l-97 0 0 -150z m165 45 c0 -40 0 -40
-42 -43 l-43 -3 0 46 0 46 43 -3 c42 -3 42 -3 42 -43z"/>
<path d="M3772 1517 c-16 -17 -22 -36 -22 -68 0 -66 26 -87 110 -91 62 -3 65
-4 65 -28 0 -24 -2 -25 -82 -28 l-83 -3 0 -29 0 -30 98 0 c90 0 100 2 120 23
31 33 31 105 -1 135 -19 18 -35 22 -85 22 -47 0 -64 4 -68 15 -13 32 15 45 93
45 l74 0 -3 28 -3 27 -95 3 c-90 2 -97 1 -118 -21z"/>
<path d="M1353 1090 c-28 -11 -43 -40 -43 -83 0 -43 34 -77 77 -77 51 0 63 9
63 46 0 30 -3 34 -25 34 -14 0 -25 -4 -25 -10 0 -5 7 -10 15 -10 8 0 15 -9 15
-20 0 -16 -7 -20 -34 -20 -44 0 -66 22 -66 65 0 47 38 74 81 58 36 -14 48 0
13 16 -29 13 -41 13 -71 1z"/>
<path d="M3823 1090 c-37 -15 -30 -56 12 -81 22 -13 35 -29 35 -41 0 -18 -5
-20 -40 -15 -40 5 -55 -5 -24 -17 33 -13 64 -6 79 18 20 30 12 49 -31 70 -48
22 -44 52 6 49 33 -3 34 -2 16 12 -22 17 -23 17 -53 5z"/>
<path d="M940 1010 l0 -80 44 0 c62 0 96 29 96 81 0 56 -26 79 -90 79 l-50 0
0 -80z m98 54 c15 -10 22 -25 22 -49 0 -43 -22 -65 -66 -65 l-34 0 0 58 c0 32
3 62 7 65 11 12 48 7 71 -9z"/>
<path d="M1180 1010 c0 -64 3 -80 15 -80 12 0 15 16 15 80 0 64 -3 80 -15 80
-12 0 -15 -16 -15 -80z"/>
<path d="M1550 1010 c0 -47 4 -80 10 -80 6 0 10 33 10 80 0 47 -4 80 -10 80
-6 0 -10 -33 -10 -80z"/>
<path d="M1693 1083 c27 -4 27 -5 27 -79 0 -43 4 -74 10 -74 6 0 10 31 10 74
0 74 0 75 28 79 15 2 -2 4 -38 4 -36 0 -53 -2 -37 -4z"/>
<path d="M1914 1055 c-7 -19 -21 -51 -29 -71 -8 -20 -15 -40 -15 -45 0 -18 17
-8 28 17 10 21 18 25 45 22 22 -2 35 -10 42 -25 5 -13 15 -23 21 -23 8 0 0 30
-19 80 -18 44 -38 80 -45 80 -7 0 -20 -16 -28 -35z m39 -12 c2 -10 8 -26 12
-35 6 -15 2 -18 -23 -18 -30 0 -30 0 -19 35 11 38 22 45 30 18z"/>
<path d="M2110 1010 l0 -80 45 0 c25 0 45 5 45 10 0 6 -16 10 -35 10 l-35 0 0
70 c0 40 -4 70 -10 70 -6 0 -10 -33 -10 -80z"/>
<path d="M2403 1083 c27 -4 27 -5 27 -79 0 -95 18 -97 22 -2 3 72 3 73 33 79
19 4 4 7 -40 6 -38 0 -58 -2 -42 -4z"/>
<path d="M2600 1010 c0 -47 4 -80 10 -80 6 0 10 16 10 35 0 35 0 35 45 35 45
0 45 0 45 -35 0 -19 5 -35 10 -35 6 0 10 33 10 80 0 47 -4 80 -10 80 -5 0 -10
-16 -10 -35 0 -35 0 -35 -45 -35 -45 0 -45 0 -45 35 0 19 -4 35 -10 35 -6 0
-10 -33 -10 -80z"/>
<path d="M2830 1010 l0 -80 50 0 c28 0 50 5 50 10 0 6 -18 10 -40 10 -36 0
-40 3 -40 25 0 21 5 25 29 25 42 0 48 18 9 22 -28 2 -33 7 -33 28 0 21 6 26
40 31 39 6 39 6 -12 8 l-53 1 0 -80z"/>
<path d="M3030 1011 c0 -47 4 -81 10 -81 6 0 10 16 10 35 0 46 17 45 57 -2 35
-43 55 -41 21 2 -17 22 -19 31 -10 44 37 50 24 75 -42 79 l-46 3 0 -80z m74
56 c21 -16 13 -43 -16 -51 -28 -7 -38 0 -38 28 0 38 21 47 54 23z"/>
<path d="M3274 1055 c-7 -19 -21 -51 -29 -71 -8 -20 -15 -40 -15 -45 0 -18 17
-8 28 17 10 21 18 25 45 22 22 -2 35 -10 42 -25 5 -13 15 -23 21 -23 8 0 0 30
-19 80 -18 44 -38 80 -45 80 -7 0 -20 -16 -28 -35z m39 -12 c2 -10 8 -26 12
-35 6 -15 2 -18 -23 -18 -30 0 -30 0 -19 35 11 38 22 45 30 18z"/>
<path d="M3460 1010 c0 -64 3 -80 15 -80 10 0 15 10 15 30 0 24 4 30 21 30 36
0 59 19 59 48 0 39 -17 52 -67 52 l-43 0 0 -80z m83 49 c15 -24 1 -49 -28 -49
-22 0 -25 4 -25 36 0 31 3 35 21 32 12 -2 27 -10 32 -19z"/>
<path d="M3670 1010 c0 -47 4 -80 10 -80 6 0 10 33 10 80 0 47 -4 80 -10 80
-6 0 -10 -33 -10 -80z"/>
<path d="M3995 1081 c30 -6 30 -7 33 -79 4 -95 22 -93 22 2 0 74 0 75 28 79
15 2 -4 4 -43 4 -44 1 -59 -2 -40 -6z"/>
</g>
</svg>
